<?xml version="1.0" encoding="utf-8"?>
<!-- Generator: Adobe Illustrator 28.1.0, SVG Export Plug-In . SVG Version: 6.00 Build 0)  -->
<svg version="1.1" id="Layer_1" xmlns="http://www.w3.org/2000/svg" xmlns:xlink="http://www.w3.org/1999/xlink" x="0px" y="0px"
	 viewBox="0 0 100 100" enable-background="new 0 0 100 100" xml:space="preserve">
<g>
	<path fill="#5091CD" d="M95.1,27c-0.1-0.8-0.5-1.6-1.2-2.1L63.5,1.5c-1.2-0.9-3-0.9-4.2,0L29,24.9c-0.7,0.5-1.1,1.3-1.2,2.1
		l-1.6,11.8l6.5-5c1.7-1.3,3.8-2,5.9-2c2.1,0,4.2,0.7,5.9,2l11.8,9.1l4.2,3.2l5.6,4.3l2.7,2l6.1,4.7c1.9,1.4,3.1,3.4,3.5,5.6H100
		L95.1,27z"/>
	<path fill="#5091CD" d="M71,62.1l-10.6-8.1l-1.9-1.5l-2.3-1.7l-15.6-12C40,38.2,39.3,38,38.5,38c-0.7,0-1.5,0.2-2.1,0.7L25,47.5
		L6.1,62.1c-0.7,0.5-1.1,1.3-1.2,2.1L0,100h37.5V79.9c0-0.4,0.3-0.6,0.6-0.6c0.2,0,0.4,0.1,0.5,0.3L50,100h27.1l-4.9-35.8
		C72.1,63.4,71.7,62.6,71,62.1z"/>
</g>
</svg>
