<?xml version="1.0" encoding="utf-8"?>
<!-- Generator: Adobe Illustrator 28.1.0, SVG Export Plug-In . SVG Version: 6.00 Build 0)  -->
<svg version="1.1" id="Layer_1" xmlns="http://www.w3.org/2000/svg" xmlns:xlink="http://www.w3.org/1999/xlink" x="0px" y="0px"
	 viewBox="0 0 100 100" enable-background="new 0 0 100 100" xml:space="preserve">
<g>
	<path fill="#5091CD" d="M93.8,12.5H6.2c-3.4,0-6.2,1.9-6.2,4.2v45.8h100V16.7C100,14.4,97.2,12.5,93.8,12.5z M34.4,22.9
		c0-1.1,1.4-2.1,3.1-2.1s3.1,0.9,3.1,2.1v6.2c0,1.1-1.4,2.1-3.1,2.1s-3.1-0.9-3.1-2.1V22.9z M46.9,58.3h-0.4
		c-6.7,0-12.1-3.6-12.1-8.1v-2.4h0.4c6.7,0,12.1,3.6,12.1,8.1V58.3z M46.9,45.8h-0.4c-6.7,0-12.1-3.6-12.1-8.1v-2.4h0.4
		c6.7,0,12.1,3.6,12.1,8.1V45.8z M50.1,35.4h-0.1c-1.7,0-3.1-0.9-3.1-2V18.7c0-1.1,1.4-2,3.1-2h0.1c1.7,0,3.1,0.9,3.1,2v14.7
		C53.1,34.5,51.8,35.4,50.1,35.4z M65.6,50.3c0,4.5-5.4,8.1-12.1,8.1h-0.4V56c0-4.5,5.4-8.1,12.1-8.1h0.4V50.3z M65.6,37.8
		c0,4.5-5.4,8.1-12.1,8.1h-0.4v-2.4c0-4.5,5.4-8.1,12.1-8.1h0.4V37.8z M65.6,29.2c0,1.1-1.4,2.1-3.1,2.1s-3.1-0.9-3.1-2.1v-6.2
		c0-1.1,1.4-2.1,3.1-2.1s3.1,0.9,3.1,2.1V29.2z"/>
	<path fill="#5091CD" d="M18.8,8.3h62.5c3.5,0,6.2-1.9,6.2-4.2S84.7,0,81.2,0H18.8c-3.5,0-6.2,1.9-6.2,4.2S15.3,8.3,18.8,8.3z"/>
	<path fill="#5091CD" d="M0,100h37.5V79.2c0-2.3,2.8-4.2,6.2-4.2h12.5c3.4,0,6.2,1.9,6.2,4.2V100H100V66.7H0V100z"/>
</g>
</svg>
